<?xml version="1.0" encoding="utf-8"?>
<!-- Generator: Adobe Illustrator 27.5.0, SVG Export Plug-In . SVG Version: 6.00 Build 0)  -->
<svg version="1.1" id="Layer_1" xmlns="http://www.w3.org/2000/svg" xmlns:xlink="http://www.w3.org/1999/xlink" x="0px" y="0px"
	 viewBox="0 0 713 234" style="enable-background:new 0 0 713 234;" xml:space="preserve">
<style type="text/css">
	.st0{fill:#12A297;}
	.st1{fill:#FFFFFF;}
</style>
<circle class="st0" cx="569.6" cy="90.95" r="42.88"/>
<circle class="st0" cx="660.12" cy="102.12" r="42.88"/>
<circle class="st0" cx="641.24" cy="34.58" r="23.52"/>
<circle class="st0" cx="600.88" cy="39.84" r="13.59"/>
<polygon class="st1" points="619.71,184.91 619.71,129.86 595.69,129.86 595.69,184.91 565.02,222.55 595.69,222.55 607.7,222.55 
	619.71,222.55 650.37,222.55 "/>
<polygon class="st0" points="123.76,20 90.69,118.67 57.62,20 11.17,20 90.69,216.85 170.22,20 "/>
<polygon class="st0" points="372.85,216.85 339.78,118.18 306.71,216.85 260.25,216.85 339.78,20 419.31,216.85 "/>
<rect x="191.58" y="20" class="st0" width="40.94" height="196.85"/>
<rect x="444.06" y="20" class="st0" width="40.94" height="196.85"/>
</svg>
